<svg enable-background="new 0 0 512 512" viewBox="0 0 512 512" xmlns="http://www.w3.org/2000/svg" xmlns:xlink="http://www.w3.org/1999/xlink"><linearGradient id="lg1"><stop offset="0" stop-color="#2a333d"/><stop offset=".3665" stop-color="#171b21"/><stop offset=".7578" stop-color="#060709"/><stop offset="1"/></linearGradient><radialGradient id="SVGID_1_" cx="446.064" cy="87.052" gradientUnits="userSpaceOnUse" r="73.489" xlink:href="#lg1"/><linearGradient id="lg2"><stop offset="0" stop-color="#2a333d"/><stop offset=".8995" stop-color="#2a333d" stop-opacity="0"/></linearGradient><linearGradient id="SVGID_00000047767296511798795440000013637133225441989302_" gradientUnits="userSpaceOnUse" x1="434.384" x2="412.431" xlink:href="#lg2" y1="90.159" y2="109.672"/><radialGradient id="SVGID_00000028307837436963195860000008741122643087075723_" cx="756.064" cy="87.052" gradientTransform="matrix(-1 0 0 1 822 0)" gradientUnits="userSpaceOnUse" r="73.489" xlink:href="#lg1"/><linearGradient id="SVGID_00000103966678333864034630000017698521795841750681_" gradientTransform="matrix(-1 0 0 1 822 0)" gradientUnits="userSpaceOnUse" x1="744.384" x2="722.431" xlink:href="#lg2" y1="90.159" y2="109.672"/><radialGradient id="SVGID_00000146499520654096537710000003969255778714930866_" cx="256.791" cy="252.709" gradientTransform="matrix(1 0 0 .968 0 8.079)" gradientUnits="userSpaceOnUse" r="231.12"><stop offset="0" stop-color="#2a333d"/><stop offset=".248" stop-color="#262e37"/><stop offset=".5723" stop-color="#1b2127"/><stop offset=".9006" stop-color="#0b0d0f"/></radialGradient><linearGradient id="SVGID_00000019657361527490921120000005938183012346616977_" gradientUnits="userSpaceOnUse" x1="256" x2="256" y1="64.868" y2="264.524"><stop offset="0" stop-color="#2a333d"/><stop offset=".8387" stop-color="#282f37" stop-opacity="0"/></linearGradient><linearGradient id="SVGID_00000146459503954157588940000000056887984585308052_" gradientUnits="userSpaceOnUse" x1="256" x2="256" y1="75.945" y2="119.641"><stop offset="0" stop-color="#2a333d"/><stop offset=".2786" stop-color="#293038" stop-opacity=".721"/><stop offset="1" stop-color="#282e36" stop-opacity="0"/></linearGradient><linearGradient id="lg3"><stop offset="0" stop-color="#2a333d"/><stop offset=".381" stop-color="#252d36"/><stop offset=".9523" stop-color="#161c21"/><stop offset="1" stop-color="#151a1f"/></linearGradient><linearGradient id="SVGID_00000150801973895311708090000003408894422453217437_" gradientUnits="userSpaceOnUse" x1="365.226" x2="365.226" xlink:href="#lg3" y1="306.187" y2="237.334"/><linearGradient id="SVGID_00000111886941279310100860000004663785255024098206_" gradientUnits="userSpaceOnUse" x1="146.774" x2="146.774" xlink:href="#lg3" y1="306.187" y2="237.334"/><linearGradient id="SVGID_00000070101413512468237400000004669837224097212057_" gradientUnits="userSpaceOnUse" x1="256" x2="256" y1="358.996" y2="272.073"><stop offset="0" stop-color="#2a333d"/><stop offset="1" stop-color="#282e37" stop-opacity="0"/></linearGradient><radialGradient id="SVGID_00000011746598686768067290000011051061011366927766_" cx="254.473" cy="267.132" gradientUnits="userSpaceOnUse" r="207.365"><stop offset=".0276" stop-color="#576874"/><stop offset=".3769" stop-color="#435460"/><stop offset=".6594" stop-color="#42525e" stop-opacity=".547"/><stop offset=".7612" stop-color="#3d4c57" stop-opacity=".383"/><stop offset=".8338" stop-color="#35424c" stop-opacity=".267"/><stop offset=".8924" stop-color="#29333b" stop-opacity=".173"/><stop offset=".9426" stop-color="#1a2025" stop-opacity=".092"/><stop offset=".9863" stop-color="#07090a" stop-opacity=".022"/><stop offset="1" stop-opacity="0"/></radialGradient><g id="border"><path d="m496 264.677c0 131.821-107.452 221.323-240 221.323s-240-89.502-240-221.323c0-131.817 107.452-238.677 240-238.677s240 106.86 240 238.677z"/><g><path d="m340.18 95.434 125.82 143.795v-179.744z"/><path d="m46 239.229 125.82-143.795-125.82-35.949z"/></g></g><g id="head"><g><path d="m376 106 70-20v100z" fill="url(#SVGID_1_)"/><path d="m436 97-29 8 9 11z" fill="url(#SVGID_00000047767296511798795440000013637133225441989302_)"/></g><g><path d="m136 106-70-20v100z" fill="url(#SVGID_00000028307837436963195860000008741122643087075723_)"/><path d="m76 97 29 8-9 11z" fill="url(#SVGID_00000103966678333864034630000017698521795841750681_)"/></g><path d="m468.5 261.14c0 116.059-95.14 194.86-212.5 194.86s-212.5-78.801-212.5-194.86c0-116.057 95.14-210.14 212.5-210.14s212.5 94.083 212.5 210.14z" fill="url(#SVGID_00000146499520654096537710000003969255778714930866_)"/></g><g id="highlights"><path d="m422.511 207.307c0 78.408-74.553 80.974-166.511 80.974-91.96 0-166.511-2.565-166.511-80.974 0-78.404 74.551-141.965 166.511-141.965 91.959 0 166.511 63.561 166.511 141.965z" fill="url(#SVGID_00000019657361527490921120000005938183012346616977_)"/><path d="m324.542 100.63c0 13.959-30.688 25.272-68.542 25.272-37.857 0-68.543-11.313-68.543-25.272 0-13.956 30.686-25.27 68.543-25.27 37.854 0 68.542 11.314 68.542 25.27z" fill="url(#SVGID_00000146459503954157588940000000056887984585308052_)"/></g><g id="face"><g><path d="m345.044 304.96c48.898 0 89.521-34.105 97.622-78.96l-154.881 61.426c16.17 11.044 35.927 17.534 57.259 17.534z" fill="url(#SVGID_00000150801973895311708090000003408894422453217437_)"/><path d="m289.005 286.945c13.02 6.604 27.848 10.352 43.589 10.352 41.903 0 77.376-26.512 89.318-63.066z" fill="#fff"/><path d="m442.667 226-20.754 8.232c-1.637 5.008-3.73 9.818-6.204 14.406l23.065-8.127c1.669-4.687 2.993-9.527 3.893-14.511z" fill="#101416"/><path d="m364.297 257.081-75.291 29.864c2.564 1.302 5.197 2.483 7.894 3.556l118.81-41.864c2.474-4.588 4.567-9.399 6.204-14.406z" fill="#d1dfe5"/></g><g><path d="m166.956 304.96c-48.898 0-89.521-34.105-97.623-78.96l154.881 61.426c-16.169 11.044-35.926 17.534-57.258 17.534z" fill="url(#SVGID_00000111886941279310100860000004663785255024098206_)"/><path d="m222.995 286.945c-13.02 6.604-27.848 10.352-43.589 10.352-41.903 0-77.376-26.512-89.318-63.066z" fill="#fff"/><g><path d="m69.333 226 20.754 8.232c1.637 5.008 3.73 9.818 6.204 14.406l-23.065-8.127c-1.669-4.687-2.993-9.527-3.893-14.511z" fill="#101416"/></g><path d="m147.703 257.081 75.291 29.864c-2.564 1.302-5.197 2.483-7.894 3.556l-118.81-41.864c-2.474-4.588-4.567-9.399-6.204-14.406z" fill="#d1dfe5"/></g><g><path d="m218 363.429c10.029-6.093 65.971-6.093 76 0l-20.49-88.429h-35.014z" fill="url(#SVGID_00000070101413512468237400000004669837224097212057_)"/><path d="m279.908 374.382c2.121 0 4.129.347 5.945.958l8.147-12.051c-12.96-5.906-63.037-5.906-76 0l8.146 12.048c1.816-.608 3.826-.955 5.945-.955 8.059 0 14.594 4.903 14.594 10.954 0 .47-.053.931-.131 1.386l9.447 5.27 9.443-5.269c-.076-.455-.131-.915-.131-1.387.001-6.051 6.535-10.954 14.595-10.954z"/></g></g><g id="details"><g><g><path d="m255.5 52h1v104h-1z" fill="url(#SVGID_00000011746598686768067290000011051061011366927766_)"/></g><g><path d="m255.776 296.447-20.276-10.138v-40.015l-89.871-50v-.293c-.001-.722.331-72.84 40.084-132.279l.831.556c-38.3 57.267-39.854 126.353-39.913 131.429l89.869 49.999v39.985l19.724 9.861z" fill="url(#SVGID_00000011746598686768067290000011051061011366927766_)"/></g><g><path d="m223.5 287.738-.686-.274-173.905-69.511.371-.929 173.22 69.238v-19.938l-133.981-59.991-.018-.303c-.03-.512-2.643-51.753 29.073-103.292l.852.524c-30.279 49.203-29.109 98.114-28.94 102.407l134.014 60.007z" fill="url(#SVGID_00000011746598686768067290000011051061011366927766_)"/></g><g><path d="m223.759 333.712 6.808-26.814c-5.12 2.355-30.006 13.096-62.468 15.301-33.55 2.278-82.286-4.34-123.963-48.812l.729-.684c41.399 44.175 89.807 50.758 123.13 48.501 36.139-2.447 62.83-15.526 63.095-15.658l.975-.483-6.831 26.905c6.451-2.603 17.814-4.143 30.766-4.143v1c-13.271 0-25.261 1.707-31.292 4.456z" fill="url(#SVGID_00000011746598686768067290000011051061011366927766_)"/></g><g><path d="m256.224 296.447-.447-.895 19.724-9.861v-39.985l.257-.143 89.612-49.856c-.061-5.077-1.619-74.171-39.914-131.429l.832-.556c39.753 59.439 40.085 131.557 40.084 132.279l-.001.293-.256.143-89.615 49.857v40.015z" fill="url(#SVGID_00000011746598686768067290000011051061011366927766_)"/></g><g><path d="m288.5 287.738v-22.062l.296-.132 133.719-59.875c.169-4.293 1.338-53.205-28.94-102.407l.852-.524c31.716 51.538 29.104 102.78 29.073 103.292l-.018.303-.277.124-133.705 59.867v19.938l173.221-69.238.371.929z" fill="url(#SVGID_00000011746598686768067290000011051061011366927766_)"/></g><g><path d="m288.241 333.712-.948-.432c-6.032-2.749-18.022-4.456-31.293-4.456v-1c12.952 0 24.314 1.54 30.767 4.143l-6.832-26.905.976.483c.266.132 26.956 13.211 63.096 15.658 33.316 2.249 81.73-4.326 123.129-48.501l.73.684c-41.68 44.474-90.427 51.088-123.964 48.812-32.462-2.205-57.348-12.945-62.469-15.301z" fill="url(#SVGID_00000011746598686768067290000011051061011366927766_)"/></g><g><g><path d="m349.67 437.562c-7.166-22.431-19.56-39.312-19.684-39.479l-.364-.491.554-.26c26.936-12.607 49.814-29.985 68-51.652l.35-.417 15.68 15.588c3.475-2.706 32.319-25.735 48.163-56.121l.887.463c-16.899 32.409-48.474 56.481-48.79 56.722l-.347.261-15.527-15.437c-18.1 21.44-40.785 38.676-67.446 51.244 2.095 2.955 12.944 18.826 19.479 39.275z" fill="url(#SVGID_00000011746598686768067290000011051061011366927766_)"/></g><g><path d="m162.329 437.562-.952-.305c6.533-20.447 17.383-36.318 19.479-39.275-26.661-12.567-49.346-29.803-67.447-51.244l-15.527 15.437-.346-.261c-.317-.24-31.892-24.312-48.79-56.722l.887-.463c15.843 30.386 44.688 53.415 48.163 56.121l15.679-15.588.35.417c18.186 21.667 41.064 39.046 68 51.652l.554.26-.364.491c-.125.168-12.518 17.049-19.686 39.48z" fill="url(#SVGID_00000011746598686768067290000011051061011366927766_)"/></g></g></g></g></svg>