<svg enable-background="new 0 0 512 512" viewBox="0 0 512 512" xmlns="http://www.w3.org/2000/svg" xmlns:xlink="http://www.w3.org/1999/xlink"><radialGradient id="SVGID_1_" cx="254.473" cy="252.89" gradientUnits="userSpaceOnUse" r="225.317"><stop offset="0" stop-color="#c1272d"/><stop offset=".2831" stop-color="#bf272d"/><stop offset=".443" stop-color="#b6262c"/><stop offset=".5723" stop-color="#a9252b"/><stop offset=".6851" stop-color="#95232a"/><stop offset=".7873" stop-color="#7b2128"/><stop offset=".8817" stop-color="#5c1e25"/><stop offset=".9686" stop-color="#371a22"/><stop offset="1" stop-color="#281921"/></radialGradient><linearGradient id="SVGID_00000178905474023621198060000015668627374802900877_" gradientUnits="userSpaceOnUse" x1="256" x2="256" y1="410.341" y2="453.132"><stop offset="0" stop-color="#ae252c"/><stop offset=".2876" stop-color="#98232a" stop-opacity=".712"/><stop offset=".8853" stop-color="#5f1e26" stop-opacity=".115"/><stop offset="1" stop-color="#531d25" stop-opacity="0"/></linearGradient><radialGradient id="SVGID_00000067932715465271597580000011047903137613854861_" cx="255.264" cy="235.484" gradientUnits="userSpaceOnUse" r="202.107"><stop offset="0" stop-color="#fcee21"/><stop offset=".7482" stop-color="#f79c1e"/><stop offset=".7821" stop-color="#f2981d"/><stop offset=".8249" stop-color="#e28d1c"/><stop offset=".8725" stop-color="#c87c19"/><stop offset=".9235" stop-color="#a46315"/><stop offset=".9766" stop-color="#764310"/><stop offset="1" stop-color="#60340e"/></radialGradient><radialGradient id="SVGID_00000170279718497673588470000013793085426498829219_" cx="254.868" cy="182.077" gradientUnits="userSpaceOnUse" r="136.245"><stop offset="0" stop-color="#fcee21"/><stop offset=".3392" stop-color="#fceb21" stop-opacity=".661"/><stop offset=".6035" stop-color="#fbe120" stop-opacity=".397"/><stop offset=".8418" stop-color="#fad120" stop-opacity=".158"/><stop offset="1" stop-color="#f9c11f" stop-opacity="0"/></radialGradient><linearGradient id="lg1"><stop offset="0" stop-color="#742027"/><stop offset=".4479" stop-color="#541d24"/><stop offset="1" stop-color="#281921"/></linearGradient><radialGradient id="SVGID_00000039836940373340641150000000447520679305860796_" cx="256" cy="355.737" gradientUnits="userSpaceOnUse" r="152.247" xlink:href="#lg1"/><radialGradient id="SVGID_00000182495103619452348760000015694637093107129020_" cx="256.846" cy="415.879" gradientUnits="userSpaceOnUse" r="200.682"><stop offset="0" stop-color="#d05a5f"/><stop offset=".6" stop-color="#c1272d"/><stop offset=".7563" stop-color="#bf272d"/><stop offset=".8169" stop-color="#b8262c"/><stop offset=".8608" stop-color="#ac252b"/><stop offset=".8968" stop-color="#9b242a"/><stop offset=".9278" stop-color="#842128"/><stop offset=".9554" stop-color="#691f26"/><stop offset=".9799" stop-color="#491c24"/><stop offset="1" stop-color="#281921"/></radialGradient><linearGradient id="lg2"><stop offset="0" stop-color="#fcee21"/><stop offset=".6564" stop-color="#f79c1e"/><stop offset=".729" stop-color="#f1981d"/><stop offset=".8261" stop-color="#e08c1c"/><stop offset=".9365" stop-color="#c47919"/><stop offset="1" stop-color="#b16c17"/></linearGradient><linearGradient id="SVGID_00000163067757209623228650000002872127308740602756_" gradientUnits="userSpaceOnUse" x1="382.311" x2="382.311" xlink:href="#lg2" y1="275.44" y2="421.216"/><linearGradient id="SVGID_00000172438753611555071020000016785795935982645411_" gradientUnits="userSpaceOnUse" x1="129.689" x2="129.689" xlink:href="#lg2" y1="275.44" y2="421.216"/><linearGradient id="lg3"><stop offset=".1658" stop-color="#f79c1e"/><stop offset=".2173" stop-color="#e8921c"/><stop offset=".316" stop-color="#c27718"/><stop offset=".4503" stop-color="#844d12"/><stop offset=".5226" stop-color="#60340e"/><stop offset=".9246" stop-color="#231305"/></linearGradient><radialGradient id="SVGID_00000137095590959644731410000000365930498102287012_" cx="257.736" cy="443.477" gradientUnits="userSpaceOnUse" r="140.643" xlink:href="#lg3"/><radialGradient id="SVGID_00000167359796507166902140000003161492841663822481_" cx="256" cy="388.453" gradientUnits="userSpaceOnUse" r="86.447" xlink:href="#lg1"/><linearGradient id="SVGID_00000097484086094930905110000015530917734408176527_" gradientUnits="userSpaceOnUse" x1="256" x2="256" y1="165.066" y2="56.289"><stop offset="0" stop-color="#c13442"/><stop offset=".1409" stop-color="#b7323f" stop-opacity=".841"/><stop offset=".3762" stop-color="#9e2d39" stop-opacity=".574"/><stop offset=".6752" stop-color="#74242e" stop-opacity=".236"/><stop offset=".8838" stop-color="#531d25" stop-opacity="0"/></linearGradient><radialGradient id="SVGID_00000163767667611037770450000013864655970491602860_" cx="255.659" cy="130.253" gradientUnits="userSpaceOnUse" r="42.337"><stop offset="0" stop-color="#742027"/><stop offset=".2044" stop-color="#6f2027"/><stop offset=".4598" stop-color="#5f1e25"/><stop offset=".7412" stop-color="#461c23"/><stop offset="1" stop-color="#281921"/></radialGradient><linearGradient id="SVGID_00000054256838943013826590000015800045022696787374_" gradientUnits="userSpaceOnUse" x1="256" x2="256" y1="117.525" y2="58.81"><stop offset=".1206" stop-color="#c13442"/><stop offset=".324" stop-color="#a72f3b" stop-opacity=".769"/><stop offset="1" stop-color="#531d25" stop-opacity="0"/></linearGradient><linearGradient id="SVGID_00000077316617372915781140000013138138143001532332_" gradientTransform="matrix(.167 0 0 1 248.333 0)" gradientUnits="userSpaceOnUse" x1="277" x2="277" y1="129.83" y2="59.372"><stop offset=".2789" stop-color="#6a1f27" stop-opacity=".5"/><stop offset="1" stop-color="#531d25" stop-opacity="0"/></linearGradient><linearGradient id="SVGID_00000022520886738571400690000017297640021418600110_" gradientTransform="matrix(-.167 0 0 1 333.667 0)" gradientUnits="userSpaceOnUse" x1="697" x2="697" y1="129.83" y2="59.372"><stop offset="0" stop-color="#c13442"/><stop offset=".1575" stop-color="#b83240" stop-opacity=".843"/><stop offset=".4144" stop-color="#a02d39" stop-opacity=".586"/><stop offset=".7367" stop-color="#78252f" stop-opacity=".263"/><stop offset="1" stop-color="#531d25" stop-opacity="0"/></linearGradient><linearGradient id="SVGID_00000004526019714831383290000009321835853658728107_" gradientUnits="userSpaceOnUse" x1="256" x2="256" y1="97.287" y2="161.975"><stop offset="0" stop-color="#fcee21" stop-opacity=".75"/><stop offset="1" stop-color="#fbb03b" stop-opacity="0"/></linearGradient><radialGradient id="SVGID_00000164499686525663110500000006231377869192016042_" cx="255.264" cy="255.264" gradientUnits="userSpaceOnUse" r="181.198" xlink:href="#lg3"/><linearGradient id="lg4"><stop offset="0" stop-color="#f2f2f2"/><stop offset=".5" stop-color="#fff"/><stop offset="1" stop-color="#a5a8aa"/></linearGradient><linearGradient id="SVGID_00000093160382044143181200000014226835493565663107_" gradientUnits="userSpaceOnUse" x1="308.539" x2="436.813" xlink:href="#lg4" y1="247.559" y2="247.559"/><linearGradient id="SVGID_00000065053129743949850270000005352410002810285975_" gradientUnits="userSpaceOnUse" x1="203.571" x2="97.293" xlink:href="#lg4" y1="247.559" y2="247.559"/><radialGradient id="SVGID_00000142169822613816042430000009192971383664621749_" cx="256" cy="218.042" gradientUnits="userSpaceOnUse" r="121.56"><stop offset="0" stop-color="#fcee21"/><stop offset=".2791" stop-color="#fce821" stop-opacity=".721"/><stop offset=".6434" stop-color="#fbd820" stop-opacity=".357"/><stop offset="1" stop-color="#f9c11f" stop-opacity="0"/></radialGradient><g id="border"><path d="m496 264.677c0 131.821-107.452 221.323-240 221.323s-240-89.502-240-221.323c0-131.817 107.452-238.677 240-238.677s240 106.86 240 238.677z"/></g><g id="head"><path d="m468.5 261.14c0 116.059-95.14 194.86-212.5 194.86s-212.5-78.801-212.5-194.86c0-116.057 95.14-210.14 212.5-210.14s212.5 94.083 212.5 210.14z" fill="url(#SVGID_1_)"/><g><path d="m186 456.549c22.017 6.179 45.546 9.451 70 9.451s47.983-3.272 70-9.451v-20.549h-140z" fill="url(#SVGID_1_)"/><path d="m256 416h-48l-2 1.814v43.455c16.074 3.108 32.807 4.732 50 4.732s33.926-1.624 50-4.732v-43.455l-2-1.814z" fill="url(#SVGID_00000178905474023621198060000015668627374802900877_)"/></g><g><path d="m135.945 401.572c15.306 10.13 30.314 17.222 48.58 23.02l19.475-18.592h2 100 2l19.475 18.592c18.266-5.799 33.275-12.89 48.58-23.02 2.181-85.921 72.538-121.997 79.402-125.315.355-4.786.543-9.643.543-14.575 0-46.36-15.971-89.012-42.741-122.821-24.956-24.793-57.005-43.647-93.241-53.979l-14.018 91.118h-100l-14.018-91.117c-36.237 10.332-68.285 29.185-93.241 53.979-26.77 33.808-42.741 76.46-42.741 122.82 0 4.932.187 9.789.543 14.575 6.864 3.318 77.221 39.394 79.402 125.315z" fill="url(#SVGID_00000067932715465271597580000011047903137613854861_)"/><path d="m320.018 84.883-14.018 91.117h-50-50l-14.018-91.117c-34.988 9.976-66.051 27.913-90.615 51.454 24.511-21.248 55.023-36.059 86.633-45.454l14.369 90.117h53.631 53.631l14.369-90.118c31.61 9.395 62.122 24.206 86.633 45.454-24.564-23.54-55.627-41.478-90.615-51.453z" fill="url(#SVGID_00000170279718497673588470000013793085426498829219_)"/><g><path d="m456 276s-77.653 35.241-79.945 125.572c-15.305 10.13-30.314 17.222-48.58 23.02l-19.475-18.592h-104l-19.474 18.592c-18.266-5.799-33.275-12.89-48.58-23.02-2.294-90.331-79.946-125.572-79.946-125.572s64.206 34.257 69.627 119.155c-.004-.004-.009-.009-.013-.013.193 3.019.321 6.095.36 9.243v.001c1.015.771 2.042 1.529 3.074 2.28 17.032 12.391 36.419 22.123 57.478 28.808l21.474-19.474h96l21.475 19.475c21.059-6.685 40.446-16.416 57.478-28.808 1.033-.751 2.059-1.51 3.074-2.28v-.001c.039-3.115.164-6.16.353-9.149-.004.003-.008.006-.012.009 5.381-84.965 69.632-119.246 69.632-119.246z" fill="url(#SVGID_00000039836940373340641150000000447520679305860796_)"/><path d="m456 276s-68.591 34.281-74.336 119.245c.004-.003.008-.006.013-.009-.189 2.792-.311 5.692-.36 8.595-16.635 11.834-34.452 21.171-54.842 27.644l-20.475-19.475h-50-50l-20.475 19.475c-20.39-6.473-38.207-15.81-54.842-27.644-.05-2.902-.171-5.802-.36-8.595.004.003.008.006.013.009-5.745-84.964-74.336-119.245-74.336-119.245s64.251 34.281 69.632 119.245c-.004-.003-.008-.006-.012-.009.19 2.989.315 6.034.353 9.149 0 0 2.042 1.53 3.074 2.281 17.032 12.391 36.419 22.123 57.478 28.808l21.475-19.474h48 48l21.475 19.475c21.059-6.685 40.446-16.416 57.478-28.808 1.033-.751 3.074-2.281 3.074-2.281.039-3.115.164-6.16.353-9.149-.004.003-.008.006-.012.009 5.381-84.965 69.632-119.246 69.632-119.246z" fill="url(#SVGID_00000182495103619452348760000015694637093107129020_)"/></g><g><g><path d="m376.055 401.572c2.181-85.921 72.538-121.997 79.402-125.315.003-.053.007-.106.01-.159-7.939 1.518-105.738 22.312-146.313 131.004l18.32 17.49c18.267-5.798 33.275-12.89 48.581-23.02z" fill="url(#SVGID_00000163067757209623228650000002872127308740602756_)"/><path d="m135.945 401.572c15.306 10.13 30.314 17.222 48.58 23.02l18.32-17.49c-40.575-108.692-138.374-129.486-146.313-131.004.004.053.007.106.01.159 6.865 3.318 77.222 39.394 79.403 125.315z" fill="url(#SVGID_00000172438753611555071020000016785795935982645411_)"/></g><g fill="#fcee21"><path d="m308 406 1.155 1.102c40.575-108.692 138.374-129.486 146.313-131.004-8.442 1.513-112.136 22.152-155.684 129.902h6.216z"/><path d="m206 406h6.216c-43.548-107.75-147.242-128.389-155.684-129.902 7.939 1.518 105.738 22.312 146.313 131.004l1.155-1.102z"/></g></g></g><g><path d="m198 386h116l19 20s23.712-.003 43.118-6.094c.099-2.746.267-5.441.501-8.085-18.593 6.174-39.619 6.179-39.619 6.179l-20-21h-122l-20 21s-21.026-.005-39.619-6.179c.234 2.644.402 5.338.501 8.085 19.406 6.091 43.118 6.094 43.118 6.094z" fill="url(#SVGID_00000137095590959644731410000000365930498102287012_)"/><g fill="none" stroke-linejoin="round" stroke-miterlimit="10"><path d="m376.118 399.906c.099-2.746.267-5.441.501-8.085-18.593 6.174-39.619 6.179-39.619 6.179l-20-21h-122l-20 21s-21.026-.005-39.619-6.179c.234 2.644.402 5.338.501 8.085" stroke="url(#SVGID_00000167359796507166902140000003161492841663822481_)" stroke-linecap="round" stroke-width="2"/><path d="m135.882 399.906c19.406 6.091 43.118 6.094 43.118 6.094l19-20h116l19 20s23.712-.003 43.118-6.094" stroke="#fcee21" stroke-width="1.5"/></g></g><g><path d="m198.148 58.886 17.852 107.114h80l17.852-107.114c-18.393-5.135-37.797-7.886-57.852-7.886s-39.459 2.751-57.852 7.886z" fill="url(#SVGID_00000097484086094930905110000015530917734408176527_)"/><path d="m216 116 10-10h60l10 10z" fill="url(#SVGID_00000163767667611037770450000013864655970491602860_)"/><path d="m293 56h-74l7 50h60z" fill="url(#SVGID_00000054256838943013826590000015800045022696787374_)"/><path d="m303 66-10-10-7 50 10 10z" fill="url(#SVGID_00000077316617372915781140000013138138143001532332_)"/><path d="m209 66 10-10 7 50-10 10z" fill="url(#SVGID_00000022520886738571400690000017297640021418600110_)"/><path d="m216 116 10-10h60l10 10" style="fill:none;stroke:#e24b61;stroke-linecap:round;stroke-linejoin:round;stroke-miterlimit:10;stroke-width:2"/></g></g><g id="highlights"><path d="m446 261.682c0-42.562-13.902-82.71-40.211-116.146-21.443-21.171-48.104-35.496-75.657-45.631l-13.553 89.095h-121.158l-13.553-89.095c-27.553 10.135-54.212 24.46-75.656 45.631-26.31 33.436-40.212 73.584-40.212 116.146z" fill="url(#SVGID_00000004526019714831383290000009321835853658728107_)"/></g><g id="face"><path d="m304.034 253.625 9.831 23.909 4.282.583c.998.136 10.897 1.426 25.673 1.426 22.855 0 57.373-3.089 88.623-18.316l5.446-2.654-12.633-51.72c-38.515 26.461-99.991 42.147-169.256 42.147-69.264 0-130.741-15.686-169.255-42.147l-12.633 51.721 5.446 2.654c31.25 15.227 65.768 18.316 88.623 18.316 14.775 0 24.675-1.29 25.673-1.426l4.282-.583 9.831-23.909.001-.009c15.492 1.57 31.56 2.383 48.032 2.383s32.54-.813 48.033-2.384z" fill="url(#SVGID_00000164499686525663110500000006231377869192016042_)"/><path d="m316.157 270.686s60 8.163 110-16.201l-7.725-31.366c-29.697 14.882-67.373 25.259-109.503 29.987z" fill="url(#SVGID_00000093160382044143181200000014226835493565663107_)"/><path d="m195.843 270.686s-60 8.163-110-16.201l7.725-31.366c29.697 14.882 67.373 25.259 109.503 29.987z" fill="url(#SVGID_00000065053129743949850270000005352410002810285975_)"/><path d="m86.745 206 5.255-18.064c42.195 24.05 95.633 38.064 164 38.064s121.805-14.014 164-38.063l5.255 18.063c-38.514 26.461-99.991 42.147-169.255 42.147s-130.741-15.686-169.255-42.147z" fill="url(#SVGID_00000142169822613816042430000009192971383664621749_)"/><path d="m86.745 206.853-12.633 51.721 5.446 2.654c31.25 15.227 65.768 18.316 88.623 18.316 14.775 0 24.675-1.29 25.673-1.426l4.282-.583 9.831-23.909.001-.009c15.492 1.57 31.56 2.383 48.032 2.383s32.54-.813 48.033-2.384l.001.009 9.831 23.909 4.282.583c.998.136 10.897 1.426 25.673 1.426 22.855 0 57.373-3.089 88.623-18.316l5.446-2.654-12.633-51.72" fill="none" stroke="#fcee21" stroke-linejoin="round" stroke-miterlimit="10" stroke-width="2"/></g></svg>