<svg enable-background="new 0 0 512 512" viewBox="0 0 512 512" xmlns="http://www.w3.org/2000/svg" xmlns:xlink="http://www.w3.org/1999/xlink"><radialGradient id="SVGID_1_" cx="258.429" cy="248.143" gradientTransform="matrix(0 1 -.996 0 505.67 -10.286)" gradientUnits="userSpaceOnUse" r="223.934"><stop offset="0" stop-color="#da0e19"/><stop offset=".173" stop-color="#d10d18"/><stop offset=".4563" stop-color="#b80c15"/><stop offset=".724" stop-color="#9b0a12"/><stop offset=".7711" stop-color="#940a11"/><stop offset=".8418" stop-color="#7f080f"/><stop offset=".927" stop-color="#5e060b"/><stop offset=".9328" stop-color="#5b060b"/></radialGradient><linearGradient id="SVGID_00000072256413553981068220000017237360365237992849_" gradientUnits="userSpaceOnUse" x1="256" x2="256" y1="-48.56" y2="306.693"><stop offset="0" stop-color="#ed1c24"/><stop offset="1" stop-color="#ed1c24" stop-opacity="0"/></linearGradient><linearGradient id="SVGID_00000049942500417992054070000011330194754436345771_" gradientUnits="userSpaceOnUse" x1="256" x2="256" y1="25.813" y2="118.388"><stop offset=".0613" stop-color="#df5156" stop-opacity=".785"/><stop offset=".3883" stop-color="#ea8b8e" stop-opacity=".512"/><stop offset="1" stop-color="#fff" stop-opacity="0"/></linearGradient><clipPath id="SVGID_00000002355670902240717050000007190619522644993462_"><path id="SVGID_00000138533888561795746730000008804767476835838857_" d="m468.5 261.14c0 116.059-95.14 194.86-212.5 194.86s-212.5-78.801-212.5-194.86c0-116.057 95.14-210.14 212.5-210.14s212.5 94.083 212.5 210.14z"/></clipPath><linearGradient id="lg1"><stop offset="0" stop-color="#163047"/><stop offset="1"/></linearGradient><linearGradient id="SVGID_00000156576321200761987080000015723113059241693099_" gradientUnits="userSpaceOnUse" x1="376.068" x2="365.894" xlink:href="#lg1" y1="317.733" y2="223.255"/><linearGradient id="SVGID_00000142138350313174447900000013206863232651867288_" gradientTransform="matrix(-1 0 0 1 752.574 0)" gradientUnits="userSpaceOnUse" x1="616.642" x2="606.468" xlink:href="#lg1" y1="317.733" y2="223.255"/><g id="border"><path d="m496 264.677c0 131.821-107.452 221.323-240 221.323s-240-89.502-240-221.323c0-131.817 107.452-238.677 240-238.677s240 106.86 240 238.677z"/></g><g id="head"><path d="m468.5 261.14c0 116.059-95.14 194.86-212.5 194.86s-212.5-78.801-212.5-194.86c0-116.057 95.14-210.14 212.5-210.14s212.5 94.083 212.5 210.14z" fill="url(#SVGID_1_)"/></g><g id="highlights"><path d="m422.511 207.307c0 78.408-74.553 80.974-166.511 80.974-91.96 0-166.511-2.565-166.511-80.974 0-78.404 74.551-141.965 166.511-141.965 91.959 0 166.511 63.561 166.511 141.965z" fill="url(#SVGID_00000072256413553981068220000017237360365237992849_)"/><path d="m324.542 100.63c0 13.959-30.688 25.272-68.542 25.272-37.857 0-68.543-11.313-68.543-25.272 0-13.956 30.686-25.27 68.543-25.27 37.854 0 68.542 11.314 68.542 25.27z" fill="url(#SVGID_00000049942500417992054070000011330194754436345771_)"/></g><g id="details"><g><g clip-path="url(#SVGID_00000002355670902240717050000007190619522644993462_)"><g><g><path d="m127.7 467.956 257.59-397.23" fill="none" stroke="#f43737" stroke-miterlimit="10" stroke-width="2"/></g><g><path d="m33.416 384.012 446.156-229.342" fill="none" stroke="#f43737" stroke-miterlimit="10" stroke-width="2"/></g><g><path d="m-1.095 269.342h515.18" fill="none" stroke="#f43737" stroke-miterlimit="10" stroke-width="2"/></g><g><path d="m33.416 154.67 446.156 229.342" fill="none" stroke="#f43737" stroke-miterlimit="10" stroke-width="2"/></g><g><path d="m127.7 70.726 257.59 397.23" fill="none" stroke="#f43737" stroke-miterlimit="10" stroke-width="2"/></g><g><path d="m254.343 40v458.684" fill="none" stroke="#f43737" stroke-miterlimit="10" stroke-width="2"/></g></g><g fill="none" stroke="#f43737" stroke-miterlimit="10" stroke-width="2"><g><g><g><path d="m160.748 121.378c33.693 17.319 76.696 7.059 96.15-22.939"/><path d="m448.292 269.185c-33.692-17.32-45.217-55.607-25.765-85.605"/></g><g><path d="m64.698 269.498c33.693 17.319 45.217 55.607 25.765 85.605"/><path d="m352.243 417.306c-33.694-17.318-76.698-7.061-96.15 22.936"/></g></g><g><g><path d="m256.671 98.578c19.453 29.998 62.456 40.257 96.149 22.938"/><path d="m422.685 354.588c-19.453-29.997-7.932-68.285 25.762-85.605"/></g><g><path d="m90.307 184.095c19.452 29.999 7.93 68.285-25.763 85.604"/><path d="m256.32 440.104c-19.452-29.996-62.456-40.256-96.149-22.939"/></g></g><g><g><path d="m352.547 121.534c0 34.638 31.479 62.667 70.385 62.667"/><path d="m352.547 417.15c0-34.641 31.479-62.669 70.385-62.669"/></g><g><path d="m160.445 121.534c0 34.638-31.481 62.667-70.385 62.667"/><path d="m160.445 417.15c0-34.641-31.481-62.669-70.385-62.669"/></g></g></g><g><g><g><path d="m202.215 185.458c19.102 9.818 43.481 4.003 54.508-13.004"/><path d="m365.227 269.254c-19.1-9.819-25.635-31.525-14.606-48.532"/></g><g><path d="m147.763 269.43c19.101 9.817 25.634 31.524 14.606 48.53"/><path d="m310.775 353.224c-19.103-9.818-43.479-4.003-54.508 13.004"/></g></g><g><g><path d="m256.595 172.533c11.026 17.006 35.407 22.823 54.509 13.004"/><path d="m350.708 317.67c-11.027-17.008-4.495-38.712 14.605-48.532"/></g><g><path d="m162.281 221.014c11.028 17.006 4.496 38.711-14.607 48.529"/><path d="m256.395 366.149c-11.028-17.005-35.407-22.821-54.507-13.005"/></g></g><g><g><path d="m310.947 185.546c0 19.638 17.849 35.528 39.903 35.528"/><path d="m310.947 353.137c0-19.64 17.849-35.528 39.903-35.528"/></g><g><path d="m202.043 185.546c0 19.638-17.847 35.528-39.902 35.528"/><path d="m202.043 353.137c0-19.64-17.847-35.528-39.902-35.528"/></g></g></g><g><g><g><path d="m238.938 242.21c6.178 3.175 14.064 1.294 17.631-4.206"/><path d="m291.665 269.312c-6.179-3.177-8.292-10.195-4.724-15.698"/></g><g><path d="m221.326 269.369c6.178 3.176 8.291 10.196 4.724 15.697"/><path d="m274.05 296.474c-6.177-3.178-14.062-1.297-17.629 4.205"/></g></g><g><g><path d="m256.526 238.029c3.569 5.5 11.455 7.38 17.631 4.206"/><path d="m286.969 284.971c-3.567-5.499-1.454-12.52 4.723-15.694"/></g><g><path d="m226.022 253.71c3.567 5.501 1.455 12.522-4.725 15.698"/><path d="m256.463 300.651c-3.568-5.5-11.453-7.379-17.631-4.205"/></g></g><g><g><path d="m274.106 242.238c0 6.352 5.775 11.49 12.907 11.49"/><path d="m274.106 296.443c0-6.352 5.775-11.489 12.907-11.489"/></g><g><path d="m238.882 242.238c0 6.352-5.772 11.49-12.906 11.49"/><path d="m238.882 296.443c0-6.352-5.772-11.489-12.906-11.489"/></g></g></g></g></g><g clip-path="url(#SVGID_00000002355670902240717050000007190619522644993462_)"><g><g><path d="m127.7 471.186 257.59-397.23" fill="none" stroke="#000" stroke-miterlimit="10" stroke-width="2"/></g><g><path d="m33.416 387.242 446.156-229.343" fill="none" stroke="#000" stroke-miterlimit="10" stroke-width="2"/></g><g><path d="m-1.095 272.571h515.18" fill="none" stroke="#000" stroke-miterlimit="10" stroke-width="2"/></g><g><path d="m33.416 157.899 446.156 229.343" fill="none" stroke="#000" stroke-miterlimit="10" stroke-width="2"/></g><g><path d="m127.7 73.956 257.59 397.23" fill="none" stroke="#000" stroke-miterlimit="10" stroke-width="2"/></g><g><path d="m256.496 43.229v458.684" fill="none" stroke="#000" stroke-miterlimit="10" stroke-width="2"/></g></g><g fill="none" stroke="#000" stroke-miterlimit="10" stroke-width="2"><g><g><g><path d="m160.748 124.607c33.693 17.319 76.696 7.06 96.15-22.938"/><path d="m448.292 272.416c-33.692-17.321-45.217-55.608-25.765-85.606"/></g><g><path d="m64.698 272.728c33.693 17.317 45.217 55.606 25.765 85.605"/><path d="m352.243 420.534c-33.694-17.316-76.698-7.061-96.15 22.938"/></g></g><g><g><path d="m256.671 101.807c19.453 29.998 62.456 40.257 96.149 22.938"/><path d="m422.685 357.818c-19.453-29.999-7.932-68.287 25.762-85.606"/></g><g><path d="m90.307 187.324c19.452 29.999 7.93 68.285-25.763 85.605"/><path d="m256.32 443.334c-19.452-29.996-62.456-40.256-96.149-22.939"/></g></g><g><g><path d="m352.547 124.764c0 34.638 31.479 62.667 70.385 62.667"/><path d="m352.547 420.379c0-34.639 31.479-62.668 70.385-62.668"/></g><g><path d="m160.445 124.764c0 34.638-31.481 62.667-70.385 62.667"/><path d="m160.445 420.379c0-34.639-31.481-62.668-70.385-62.668"/></g></g></g><g><g><g><path d="m202.215 188.689c19.102 9.818 43.481 4.002 54.508-13.004"/><path d="m365.227 272.483c-19.1-9.819-25.635-31.525-14.606-48.532"/></g><g><path d="m147.763 272.659c19.101 9.816 25.634 31.525 14.606 48.53"/><path d="m310.775 356.453c-19.103-9.818-43.479-4.003-54.508 13.004"/></g></g><g><g><path d="m256.595 175.763c11.026 17.006 35.407 22.823 54.509 13.004"/><path d="m350.708 320.899c-11.027-17.007-4.495-38.712 14.605-48.531"/></g><g><path d="m162.281 224.244c11.028 17.006 4.496 38.711-14.607 48.53"/><path d="m256.395 369.378c-11.028-17.005-35.407-22.82-54.507-13.003"/></g></g><g><g><path d="m310.947 188.776c0 19.638 17.849 35.528 39.903 35.528"/><path d="m310.947 356.366c0-19.639 17.849-35.527 39.903-35.527"/></g><g><path d="m202.043 188.776c0 19.638-17.847 35.528-39.902 35.528"/><path d="m202.043 356.366c0-19.639-17.847-35.527-39.902-35.527"/></g></g></g><g><g><g><path d="m238.938 245.439c6.178 3.175 14.064 1.294 17.631-4.206"/><path d="m291.665 272.542c-6.179-3.176-8.292-10.195-4.724-15.697"/></g><g><path d="m221.326 272.599c6.178 3.177 8.291 10.196 4.724 15.698"/><path d="m274.05 299.702c-6.177-3.177-14.062-1.296-17.629 4.205"/></g></g><g><g><path d="m256.526 241.259c3.569 5.5 11.455 7.381 17.631 4.206"/><path d="m286.969 288.201c-3.567-5.5-1.454-12.52 4.723-15.695"/></g><g><path d="m226.022 256.94c3.567 5.501 1.455 12.522-4.725 15.697"/><path d="m256.463 303.881c-3.568-5.499-11.453-7.38-17.631-4.204"/></g></g><g><g><path d="m274.106 245.468c0 6.352 5.775 11.49 12.907 11.49"/><path d="m274.106 299.674c0-6.353 5.775-11.49 12.907-11.49"/></g><g><path d="m238.882 245.468c0 6.352-5.772 11.49-12.906 11.49"/><path d="m238.882 299.674c0-6.353-5.772-11.49-12.906-11.49"/></g></g></g></g></g></g></g><g id="face"><g><path d="m352.288 206.918.022.072c-6.754-.181-13.641.381-20.521 1.796-41.504 8.532-63.887 47.493-53.844 83.021 10.046 35.531 48.709 54.182 90.216 45.646 6.879-1.416 13.312-3.592 19.22-6.375l.025.071s76.377-23.526 81.033-155.149c0 0-47.938 28.633-116.151 30.918z"/><path d="m355.214 237.405.016.046c-4.803-.385-9.723-.306-14.676.319-29.888 3.764-46.161 28.961-40.484 52.005 5.684 23.045 31.168 35.208 61.048 31.445 4.958-.625 9.625-1.754 13.946-3.288l.011.048s55.324-11.913 64.064-95.594c-.001.001-35.295 16.312-83.925 15.019z" fill="url(#SVGID_00000156576321200761987080000015723113059241693099_)"/><path d="m350.853 231.815.016.045c-4.686-.375-9.486-.297-14.318.311-29.163 3.673-45.041 28.258-39.503 50.742 5.546 22.483 30.411 34.353 59.564 30.682 4.838-.609 9.393-1.712 13.609-3.209l.011.045s53.98-11.623 62.508-93.27c-.001.001-34.439 15.916-81.887 14.654z" fill="#fff"/><path d="m159.712 206.918-.022.072c6.754-.181 13.641.381 20.521 1.796 41.504 8.532 63.887 47.493 53.844 83.021-10.046 35.531-48.709 54.182-90.216 45.646-6.879-1.416-13.312-3.592-19.22-6.375l-.025.071s-76.377-23.526-81.033-155.149c0 0 47.938 28.633 116.151 30.918z"/><path d="m156.786 237.405-.016.046c4.803-.385 9.723-.306 14.676.319 29.888 3.764 46.161 28.961 40.484 52.005-5.684 23.045-31.168 35.208-61.048 31.445-4.958-.625-9.625-1.754-13.946-3.288l-.011.048s-55.324-11.913-64.063-95.594c0 .001 35.294 16.312 83.924 15.019z" fill="url(#SVGID_00000142138350313174447900000013206863232651867288_)"/><path d="m161.148 231.815-.016.045c4.686-.375 9.486-.297 14.318.311 29.163 3.673 45.041 28.258 39.503 50.742-5.546 22.483-30.411 34.353-59.564 30.682-4.838-.609-9.393-1.712-13.609-3.209l-.011.045s-53.98-11.623-62.508-93.27c0 .001 34.438 15.916 81.887 14.654z" fill="#fff"/></g></g></svg>