<svg id="Layer_1" enable-background="new 0 0 128 128" height="512" viewBox="0 0 128 128" width="512" xmlns="http://www.w3.org/2000/svg"><g><path id="XMLID_154_" d="m128 64c0 19.8-9 37.5-23.1 49.3-2.8 2.4-5.9 4.5-9.1 6.3-9.3 5.4-20.2 8.4-31.8 8.4s-22.4-3.1-31.8-8.4c-3.2-1.9-6.3-4-9.1-6.3-14.1-11.8-23.1-29.5-23.1-49.3 0-35.4 28.7-64 64-64s64 28.6 64 64z" fill="#73d658"/><g id="XMLID_1838_"><path id="XMLID_93_" d="m34.1 75.9s3.7 2.7 7.3-1.1c0 0 6-3.3.7-11.8 0 0-7.1-13.9-5.3-29.2 0 0 3.1-25.4 27.2-25.4 7.3 0 28.6.5 28.6 33 0 6.2-.2 12.8-6.2 26.3 0 0-3.3 11.4 7.5 8.5 0 0-4.5 4.2-10.8.1 0 0 2.9 5.2 8.9 3.3 0 0-13.9 5.5-28.2-1.8 0 0-17.3 6.9-27.8 2.2 0 0 5.6 2.2 8.7-3.7 0-.2-6.8 3.5-10.6-.4z" fill="#343843"/><ellipse id="XMLID_92_" cx="43.1" cy="46.4" fill="#f8cfa3" rx="4.2" ry="7.9" transform="matrix(.975 -.222 .222 .975 -9.239 10.745)"/><path id="XMLID_91_" d="m44.4 52.5c-1 0-2.9-2-3.7-5.5-.8-3.6.1-6.4 1.1-6.6h.1c1 0 2.9 2 3.7 5.5.4 1.8.4 3.6.1 4.9-.3.9-.7 1.6-1.1 1.7-.1 0-.2 0-.2 0z" fill="#f1b97c"/><ellipse id="XMLID_90_" cx="84.9" cy="46.4" fill="#f8cfa3" rx="7.9" ry="4.2" transform="matrix(.222 -.975 .975 .222 20.74 118.866)"/><path id="XMLID_89_" d="m83.6 52.5h-.1c-.4-.1-.9-.8-1.1-1.7-.4-1.4-.3-3.1.1-4.9.8-3.6 2.7-5.5 3.7-5.5h.1c1 .2 1.9 3 1.1 6.6-.9 3.5-2.8 5.5-3.8 5.5z" fill="#f1b97c"/><path id="XMLID_88_" d="m50.4 77.1 1.4-6.4 2.3-1.1 19.9-.2 4.4 5.9-1.1 1.8z" fill="#e7e7e8"/><path id="XMLID_148_" d="m108.5 99.6v10.4c-11.5 11.1-27.2 18-44.5 18s-33-6.9-44.5-18v-10.4c1.2-13.2 9.3-14.9 13-15.1 2-.1 4.1-.3 6.1-.8 15.7-3.9 15.8-13.4 15.8-13.4v-8.9h19.2v8.9s.2 9.5 15.8 13.4c2 .5 4 .7 6.1.8 3.7.2 11.8 1.9 13 15.1z" fill="#f1b97c"/><path id="XMLID_115_" d="m108.5 99.6v10.4c-11.5 11.1-27.2 18-44.5 18s-33-6.9-44.5-18v-10.4c1.2-13.2 9.3-14.9 13-15.1 2-.1 4.1-.3 6.1-.8 6.7-1.7 10.6-4.4 12.8-6.9l4 8.4 8.6 20.9 10-22.9 3.4-5.6c2.3 2.3 6.1 4.6 12.1 6.1 2 .5 4 .7 6.1.8 3.6.2 11.7 1.9 12.9 15.1z" fill="#bb5c64"/><path id="XMLID_85_" d="m85.2 43.9c0 12.8-9.5 28.2-21.2 28.2s-21.2-15.4-21.2-28.2 9.5-23.1 21.2-23.1 21.2 10.3 21.2 23.1z" fill="#f8cfa3"/><path id="XMLID_73_" d="m76 79.5c-2.3 14.3-10.9 28.9-11.9 30.6 0 .1-.1.1-.2 0-1-1.7-9.6-16.3-11.9-30.6l1.3-.4 1.9 1.5 1.8 2.4s3.7 10.9 7 18.9c3.4-8 7-18.9 7-18.9l1.7-2.5 1.9-1.5z" fill="#e7e7e8"/><path id="XMLID_72_" d="m85.2 83.4 1 7.7s-3.4-5.1-7-8.7c-2.3-2.4-6.2-2.2-8.2.5 0 0 0 .1-.1.1 0 0 .5-1.8 3.2-5.1.7-.8 1.1-1.7 1.2-2.6.3-1.9-.3-3.9-1.9-5.1v-1.3c1.5.4 3.4 1.2 5.4 2.9 3.6 3 5.8 7.1 6.4 11.6z" fill="#fcfcfc"/><path id="XMLID_70_" d="m57 83s0-.1-.1-.1c-2-2.7-5.9-2.9-8.2-.5-3.5 3.7-7 8.7-7 8.7l1-7.7c.6-4.5 2.8-8.6 6.2-11.6 2-1.7 3.8-2.5 5.4-2.9v1.3c-1.5 1.2-2.2 3.2-1.9 5.1.2.9.6 1.8 1.2 2.6 2.9 3.3 3.4 5.1 3.4 5.1z" fill="#fcfcfc"/><path id="XMLID_68_" d="m84.1 50.6c.8-4.7-1.2-9.5-5-12.4-4.2-3.3-6.2-8.8-6.2-8.8-3.2 9.2-12.1 11.4-12.1 11.4 9-5.7 9.1-12.7 9.1-12.7-2.5 3.3-6.5 5.8-9.5 7.3-1.8.9-3.8 1.6-5.7 2.1-13.4 3.3-10.8 14.3-10.8 14.3s-4.7-11.8 4.9-25.5 25.7-6.7 25.7-6.7 9 6.4 9.8 9.7c2.7 12-.2 21.3-.2 21.3z" fill="#343843"/><path id="XMLID_66_" d="m69.7 23.6c1.2-1.6 2.3-3.7 2.3-5.7-.4 2.5-2.7 5.4-4.8 7.1 1.6-1.6 3.2-4.8 3-7.1-.1 1-.8 2.8-2 4.5 1.1-1.9 1.5-4.1 1.3-5.4-1.3 12.4-19.7 7.8-22.8 19.6.5-1.1 2.2-2.5 3.4-3.4-2.3 2-4 4.7-4.1 5.5.2-.5.8-1.2 1.1-1.6v.2c.1-.2.2-.3.2-.4 4.1-4.1 8.9-5.4 13.3-6.9 8.8-3.1 11.9-8.3 12-11.4-.4 1.6-1.9 4-2.9 5z" fill="#454652"/></g></g></svg>