<svg id="_38-People" height="512" viewBox="0 0 512 512" width="512" xmlns="http://www.w3.org/2000/svg" data-name="38-People"><g><path d="m335.792 404.331c-13.595-5.763-28.043-7.969-42.624-7.542v-51.817l-17.456 5.956c-21.899 7.362-36.821 1.163-57.234-6.017v51.879c-14.591-.417-29.022 1.876-42.607 7.681l-5.008 2.106c24.111 88.813 146.037 88.653 169.955-.154l-5.025-2.092z" fill="#dd9f76"/><path d="m408.441 501.068-3.907-23.528c-4.007-24.126-17.743-44.605-37.687-56.185l-19.149-11.121c-3.824-2.22-7.829-4.206-11.905-5.902-3.155-1.391-7.103.466-8.043 3.782-14.915 49.422-75.818 69.436-117.001 38.16-12.659-9.493-22.183-23.002-26.818-38.038-.499-1.62-1.659-2.953-3.195-3.669-1.533-.717-3.303-.751-4.864-.094-8.118 3.165-23.003 12.578-30.717 16.883-19.943 11.58-33.68 32.059-37.687 56.185l-3.907 23.528c-.289 1.739.202 3.518 1.342 4.862 1.141 1.345 2.814 2.121 4.577 2.121h293.043c3.583.08 6.603-3.444 5.919-6.983z" fill="#ff7e6c"/><path d="m270.73 484.051c15.311-2.412 30.098-8.353 42.757-17.313 12.04-8.522 21.789-19.341 28.827-31.876l12.48 7.248c13.734 7.975 23.233 22.321 26.063 39.363l.429 2.579h-110.557zm-140.016 0 .429-2.58c2.82-16.979 12.26-31.284 25.913-39.275 2.369-1.327 5.182-2.986 8.153-4.74 1.274-.752 2.739-1.616 4.292-2.523 6.729 11.829 15.875 22.301 26.795 30.501 12.935 9.807 27.744 16.119 43.482 18.617z" fill="#ff9c88"/><path d="m408.441 501.068-3.907-23.528c-3.617-21.781-15.167-40.587-32.052-52.559 3.329 6.994 5.726 14.575 7.052 22.559l3.907 23.528c.684 3.539-2.336 7.063-5.919 6.983h-270.14l-3.822 23.017c-.289 1.739.202 3.518 1.342 4.862 1.141 1.345 2.814 2.121 4.577 2.121h293.043c3.583.08 6.603-3.444 5.919-6.983z" fill="#ef635e"/><g fill="#6c3849"><path d="m169.666 26.489c-9.993-29.224-51.56-30.303-63.047-1.648-30.302-5.942-51.992 29.507-32.933 53.779-20.3 23.271-.436 59.792 30.117 55.409 1.253 3.507 2.943 8.078 7.388 7.969 2.65.009 5.035-1.777 5.764-4.326 11.844-40.767 40.888-74.163 79.684-91.625 1.782-.802 3.062-2.422 3.43-4.342s-.223-3.898-1.582-5.303c-7.529-7.776-18.329-11.363-28.82-9.913z"/><path d="m438.314 78.619c19.067-24.29-2.651-59.719-32.933-53.779-11.528-28.676-53.064-27.553-63.047 1.648-10.49-1.449-21.291 2.138-28.82 9.913-1.359 1.404-1.95 3.383-1.582 5.303.367 1.92 1.647 3.54 3.43 4.342 38.797 17.463 67.841 50.859 79.684 91.625.727 2.548 3.115 4.338 5.764 4.326 4.438.1 6.141-4.454 7.388-7.969 30.573 4.374 50.409-32.148 30.117-55.41z"/></g><path d="m81.84 129.611c6.136 3.771 13.652 5.61 21.963 4.417 1.253 3.507 2.943 8.078 7.388 7.969 2.65.009 5.035-1.777 5.764-4.326 11.844-40.767 40.888-74.163 79.684-91.625 1.782-.802 3.062-2.422 3.43-4.342s-.223-3.898-1.582-5.303c-7.529-7.776-18.329-11.363-28.82-9.913-.701-2.05-1.572-3.946-2.562-5.718-41.147 23.335-72.29 62.335-85.264 108.84z" fill="#5b2b3c"/><path d="m344.896 20.771c-.99 1.772-1.861 3.668-2.562 5.718-10.49-1.449-21.291 2.138-28.82 9.913-1.359 1.404-1.95 3.383-1.582 5.303.367 1.92 1.647 3.54 3.43 4.342 38.797 17.463 67.841 50.859 79.684 91.625.727 2.548 3.115 4.338 5.764 4.326 4.438.1 6.141-4.454 7.388-7.969 8.313 1.189 15.829-.649 21.963-4.418-12.975-46.505-44.117-85.504-85.264-108.839z" fill="#5b2b3c"/><g fill="#471a2b"><path d="m149.406 42.6c-1.501-7.801-12.814-6.032-11.855 1.858 0 0 2.49 15.886 2.49 15.886 1.516 7.823 12.82 6.008 11.855-1.858 0 0-2.49-15.886-2.49-15.886z"/><path d="m116.569 86.372-16.004 6.364c-7.302 3.211-3.009 13.836 4.434 11.15 0 0 16.004-6.364 16.004-6.364 7.275-3.184 3.049-13.833-4.434-11.15z"/><path d="m127.163 65.945-15.632-11.38c-2.678-1.95-6.432-1.359-8.382 1.319s-1.359 6.432 1.319 8.382l15.632 11.38c1.065.776 2.302 1.15 3.526 1.15 5.703.047 8.234-7.456 3.536-10.851z"/><path d="m369.45 37.601c-3.264-.516-6.344 1.724-6.856 4.999l-2.49 15.886c-.965 7.862 10.337 9.685 11.855 1.858 0 0 2.49-15.886 2.49-15.886.513-3.274-1.725-6.344-4.999-6.857z"/><path d="m411.435 92.736-16.004-6.364c-3.081-1.226-6.568.279-7.792 3.358-1.225 3.079.279 6.568 3.358 7.792 1.342.367 17.204 7.285 18.219 6.79 6.525-.047 8.347-9.055 2.219-11.577z"/><path d="m391.899 75.646 15.632-11.38c2.679-1.95 3.27-5.703 1.319-8.382s-5.704-3.269-8.382-1.319l-15.632 11.38c-6.266 4.907.498 14.153 7.062 9.701z"/></g><g fill="#ffa6c8"><path d="m161.859 57.404c-22.021-12.064-49.727 4.498-49.511 29.633 0 7.656 2.648 15.152 7.457 21.107 2.502 3.273 7.984 2.812 9.898-.83 8.58-15.265 19.742-28.734 33.178-40.032 3.217-2.552 2.657-8.039-1.021-9.878z"/><path d="m366.031 53.415c-5.538 0-11.032 1.379-15.891 3.989-1.752.941-2.924 2.689-3.128 4.668-.205 1.979.584 3.93 2.106 5.21 13.436 11.298 24.598 24.767 33.178 40.033 1.051 1.882 3.075 3.066 5.231 3.06 1.804 0 3.522-.813 4.667-2.23 4.809-5.955 7.457-13.451 7.457-21.108 0-18.539-15.082-33.621-33.621-33.621z"/></g><g fill="#dd9f76"><path d="m403.892 205.287c-11.453-.445-22.535 4.272-29.913 13.109-1.171 1.391-1.644 3.234-1.298 5.008l-1.242 43.077c-.162 3.283 2.708 6.241 5.997 6.173h8.451c22.993 0 41.699-18.706 41.699-41.699.954-13.721-9.833-25.729-23.694-25.669z"/><path d="m137.791 218.329c-7.377-8.794-18.437-13.488-29.856-13.043-13.859-.059-24.651 11.947-23.694 25.669 0 22.993 18.706 41.699 41.699 41.699h8.451c3.286.065 6.161-2.887 5.997-6.173l-1.251-43.365c.262-1.691-.211-3.442-1.346-4.787z"/></g><path d="m137.791 218.329c-4.643-5.534-10.745-9.441-17.477-11.469.019.834.054 1.674.123 2.523-3.446 3.399-5.473 8.16-5.321 13.343l1.409 48.842c3.028.702 6.176 1.085 9.414 1.085h8.451c3.286.065 6.161-2.887 5.997-6.173l-1.251-43.365c.262-1.691-.211-3.442-1.346-4.787z" fill="#c68561"/><path d="m396.707 222.838c.148-5.122-1.935-9.996-5.496-13.457.068-.832.103-1.654.123-2.471-6.689 2.05-12.745 5.963-17.355 11.485-1.171 1.391-1.644 3.234-1.298 5.008l-1.242 43.077c-.162 3.283 2.708 6.241 5.997 6.173h8.451c3.238 0 6.386-.383 9.414-1.085l1.406-48.731z" fill="#c68561"/><g fill="#aa633c"><path d="m114.486 226.845-3.801-.294c-3.312-.258-6.19 2.214-6.446 5.519-.256 3.304 2.215 6.189 5.519 6.445l3.802.294c7.277.563 13.151 6.479 13.663 13.761.223 3.163 2.856 5.58 5.979 5.58 3.461.014 6.25-2.966 5.991-6.421-.926-13.167-11.548-23.865-24.707-24.883z"/><path d="m407.761 232.069c-.257-3.304-3.132-5.776-6.446-5.519l-3.8.294c-13.16 1.019-23.782 11.716-24.708 24.883-.232 3.306 2.259 6.174 5.564 6.406 3.264.243 6.184-2.252 6.406-5.564.512-7.282 6.386-13.198 13.664-13.761l3.801-.294c3.304-.256 5.774-3.142 5.519-6.445z"/></g><path d="m283.462 373.643 9.706-3.312v-25.359l-17.456 5.956c-21.899 7.362-36.821 1.163-57.234-6.017v25.359l9.887 3.373c8.848 3.019 18.116 4.549 27.549 4.549s18.701-1.53 27.549-4.549z" fill="#aa633c"/><path d="m381.017 216.776c-.77-.343-2.448-.746-2.824-1.01.021-.731.245-2.033.417-3.032 2.951-13.875-2.919-25.556-16.479-29.515-4.494-1.626-6.723-2.566-8.286-6.136-1.562-3.569-.739-5.845 1.117-10.248 2.004-4.756 4.75-11.269 1.053-19.719-3.864-8.83-10.65-10.441-15.141-11.506-3.856-.915-5.453-1.294-6.917-4.641-.795-1.816-2.437-3.123-4.385-3.491-1.947-.368-3.952.251-5.355 1.653-18.104 18.104-43.033 28.488-68.395 28.488s-50.29-10.384-68.394-28.488c-1.401-1.402-3.405-2.021-5.355-1.653-1.948.368-3.59 1.674-4.385 3.491-1.464 3.347-3.061 3.726-6.917 4.641-4.491 1.065-11.277 2.676-15.141 11.506-3.697 8.45-.951 14.963 1.053 19.719 1.856 4.403 2.679 6.679 1.117 10.248-1.562 3.571-3.792 4.511-8.286 6.136-13.443 3.937-19.457 15.484-16.478 29.515.172 1 .395 2.301.417 3.032-.266.136-.724.332-1.46.546-2.86.538-4.969 3.087-4.882 6.069l1.431 49.584c.957 33.188 22.713 62.689 54.136 73.411l49.562 16.91c7.634 2.604 15.652 3.906 23.674 3.906s16.041-1.302 23.674-3.906l49.562-16.91c31.423-10.722 53.179-40.223 54.136-73.411l1.428-49.475c.072-2.486-1.397-4.759-3.695-5.714z" fill="#edb691"/><path d="m381.017 216.776c-.77-.343-2.448-.746-2.824-1.01.021-.731.245-2.033.417-3.032 2.361-11.097-.938-20.78-9.285-26.242-.039 2.018-.259 4.099-.715 6.242-.172 1-.396 2.301-.417 3.032.376.264 2.055.667 2.824 1.01 2.298.955 3.768 3.228 3.695 5.714l-1.428 49.475c-.957 33.188-22.713 62.689-54.136 73.411l-49.562 16.91c-7.633 2.604-15.655 3.906-23.674 3.906s-16.04-1.302-23.674-3.906l-49.562-16.91c-16.574-5.655-30.454-16.538-40.015-30.427 7.816 23.245 26.113 42.272 50.015 50.427l49.562 16.91c7.634 2.604 15.652 3.906 23.674 3.906s16.041-1.302 23.674-3.906l49.562-16.91c31.423-10.722 53.179-40.223 54.136-73.411l1.428-49.475c.072-2.486-1.397-4.759-3.695-5.714z" fill="#dd9f76"/><path d="m383.284 271.965-.013.689h.107l.706-28.412z" fill="#edb691"/><g fill="#ce4141"><path d="m164.944 508.051c3.004-12.932 5.774-24.86 5.774-24.86.749-3.228-1.26-6.452-4.487-7.202-3.233-.753-6.453 1.259-7.202 4.487l-6.405 27.575z"/><path d="m352.972 480.476c-2.052-7.658-13.217-5.1-11.689 2.715l5.774 24.86h12.32z"/></g><g fill="#fcdc45"><path d="m118.348 254.72c-3.313 0-6 2.687-6 6v13.87c.273 7.939 11.725 7.944 12 0v-13.87c0-3.313-2.687-6-6-6z"/><path d="m393.652 254.72c-3.313 0-6 2.687-6 6v13.87c.273 7.939 11.725 7.944 12 0v-13.87c0-3.313-2.687-6-6-6z"/></g><path d="m281.827 297.728h-52.009c-3.313 0-6 2.687-6 6 1.731 37.74 62.288 37.724 64.009 0 0-3.313-2.687-6-6-6z" fill="#da387d"/><g fill="#aa633c"><path d="m208.212 225.681h-16.597c-7.942.274-7.941 11.726 0 12h10.597v8.363c.274 7.94 11.726 7.942 12 0v-14.363c0-3.313-2.687-6-6-6z"/><path d="m320.211 225.681h-16.597c-3.313 0-6 2.687-6 6v14.363c.273 7.939 11.725 7.944 12 0v-8.363h10.597c7.942-.274 7.94-11.727 0-12z"/><path d="m187.373 208.62c-5.421 5.809 2.673 13.907 8.484 8.485 3.989-3.988 10.478-3.99 14.47 0 2.342 2.343 6.142 2.343 8.484 0 2.344-2.343 2.344-6.142 0-8.485-8.666-8.668-22.772-8.667-31.438 0z"/><path d="m315.969 217.105c5.774 5.434 13.922-2.705 8.484-8.485-8.666-8.667-22.772-8.669-31.438 0-5.421 5.809 2.673 13.907 8.484 8.485 3.991-3.99 10.48-3.988 14.47 0z"/><path d="m250.312 249.915c-7.944.277-7.94 11.725 0 12 6.887.245 6.884 10.165 0 10.408-3.313 0-6 2.687-6 6s2.687 6 6 6c9.485 0 17.203-7.718 17.203-17.204s-7.718-17.204-17.203-17.204z"/></g></g><path d="m256 21.355c-86.45 0-156.783 70.332-156.783 156.782v28.798c2.689-1.072 5.626-1.662 8.718-1.649 6.641-.258 13.152 1.23 18.895 4.241l.285 12.962.058 2.006c.428.429.846.87 1.244 1.335 1.378 1.862 3.991 2.825 6.34 2.167 12.504-3.337 10.945-12.417 10.107-17.295-.573-3.339-1.114-6.493.448-10.064 1.562-3.57 3.791-4.51 8.285-6.136 4.854-1.756 11.501-4.16 15.198-12.61s.951-14.963-1.053-19.719c-1.856-4.403-2.679-6.678-1.117-10.248 1.464-3.347 3.061-3.726 6.917-4.641 3.003-.712 7.033-1.669 10.528-4.865 39.606 35.94 103.901 35.938 143.505 0 3.495 3.196 7.525 4.153 10.528 4.865 3.856.915 5.453 1.294 6.917 4.641 1.562 3.569.739 5.844-1.117 10.248-2.004 4.756-4.75 11.269-1.053 19.719s10.345 10.854 15.198 12.61c4.494 1.625 6.724 2.565 8.286 6.136s1.021 6.725.447 10.064c-.829 4.831-2.365 13.782 9.749 17.197 2.332.849 5.005.159 6.631-1.781.474-.563.976-1.096 1.492-1.61l.058-2.019.285-12.962c5.742-3.01 12.253-4.499 18.895-4.241 3.159-.014 6.155.605 8.892 1.722v-28.871c0-86.45-70.333-156.782-156.783-156.782z" fill="#6c3849"/><path d="m388.783 192.12c-.146-.365-.3-.732-.461-1.101-5.765-13.172-16.397-17.019-22.11-19.084-.105-.039-.215-.078-.328-.119.047-.11.092-.217.135-.32 2.359-5.596 6.753-16.016.99-29.189-6.261-14.315-18.247-17.159-23.364-18.373-.303-.072-.66-.157-.979-.236l-15.027-13.742-16.19 14.691c-14.73 13.366-34.485 20.728-55.625 20.728s-40.895-7.361-55.624-20.727l-16.19-14.692-15.027 13.743c-.319.08-.677.165-.979.236-5.118 1.214-17.104 4.058-23.365 18.374-5.763 13.173-1.369 23.592.99 29.19.043.103.088.209.134.318-.112.041-.222.081-.327.119-5.714 2.066-16.349 5.913-22.111 19.087-.035.082-.07.164-.105.245v-13.129c0-73.216 59.566-132.782 132.783-132.782s132.783 59.566 132.783 132.782v13.982z" fill="#7f4c60"/><g fill="#471a2b"><path d="m166.403 85.362c-1.389-3.008-4.953-4.32-7.962-2.933-3.009 1.389-4.321 4.954-2.933 7.962 4.808 10.416 14.826 26.247 15.25 26.916 4.501 6.568 14.154.41 10.135-6.427-.1-.157-10.013-15.819-14.49-25.518z"/><path d="m205.798 65.575c-.647-3.25-3.813-5.363-7.057-4.712-3.25.647-5.359 3.806-4.713 7.056 3.899 19.582 20.933 48.064 21.655 49.267 1.126 1.873 3.112 2.91 5.148 2.91 4.506.11 7.601-5.247 5.137-9.092-.167-.277-16.676-27.873-20.171-45.428z"/><path d="m243.757 55.255c-.296-3.3-3.207-5.738-6.512-5.441-3.301.295-5.736 3.21-5.441 6.511l3.522 39.34c.987 7.893 12.392 6.856 11.953-1.07 0 0-3.522-39.34-3.522-39.34z"/><path d="m136.163 134.869c-5.839-5.385-13.892 2.761-8.432 8.538 0 0 6.736 6.652 6.736 6.652 1.169 1.155 2.692 1.731 4.216 1.731 5.238.089 8.048-6.591 4.216-10.269 0 0-6.736-6.652-6.736-6.652z"/><path d="m353.559 82.429c-3.008-1.388-6.573-.076-7.962 2.933-4.473 9.689-14.391 25.362-14.49 25.519-2.569 3.869.457 9.31 5.062 9.213 1.986 0 3.931-.986 5.073-2.787.424-.669 10.442-16.5 15.25-26.916 1.389-3.009.076-6.573-2.933-7.962z"/><path d="m313.259 60.862c-3.247-.649-6.409 1.463-7.057 4.712-3.49 17.529-20.005 45.152-20.171 45.429-2.459 3.839.627 9.21 5.138 9.091 2.036 0 4.021-1.037 5.147-2.909.723-1.203 17.756-29.685 21.655-49.267.646-3.25-1.463-6.409-4.713-7.056z"/><path d="m274.755 49.814c-3.299-.293-6.216 2.14-6.512 5.441l-3.522 39.34c-.295 3.301 2.141 6.216 5.441 6.511 3.25.307 6.229-2.131 6.512-5.441 0 0 3.522-39.34 3.522-39.34.295-3.301-2.141-6.216-5.441-6.511z"/><path d="m384.322 134.922c-2.329-2.359-6.129-2.381-8.485-.053l-6.736 6.652c-5.472 5.746 2.619 13.937 8.432 8.538 0 0 6.736-6.652 6.736-6.652 2.358-2.328 2.382-6.127.054-8.485z"/></g></svg>