<svg id="Capa_1" enable-background="new 0 0 512 512" height="512" viewBox="0 0 512 512" width="512" xmlns="http://www.w3.org/2000/svg"><g><g><g><path d="m259.566 512c-33.307 0-64.119-27.409-86.758-77.179-21.784-47.89-33.781-111.396-33.781-178.821s11.997-130.932 33.781-178.821c22.64-49.77 53.451-77.179 86.758-77.179s64.117 27.409 86.757 77.179c21.784 47.89 33.781 111.396 33.781 178.821s-11.997 130.932-33.781 178.821c-22.639 49.77-53.45 77.179-86.757 77.179zm0-497c-27.081 0-53.043 24.288-73.104 68.39-20.916 45.98-32.435 107.281-32.435 172.61s11.519 126.63 32.435 172.61c20.061 44.102 46.023 68.39 73.104 68.39 27.08 0 53.042-24.288 73.103-68.39 20.917-45.98 32.436-107.282 32.436-172.61s-11.519-126.63-32.436-172.61c-20.061-44.102-46.022-68.39-73.103-68.39z" fill="#fc9744"/><path d="m393.882 421.696c-7.271.001-14.885-.381-22.83-1.151-52.366-5.079-113.363-26.442-171.755-60.155-58.392-33.712-107.392-75.855-137.973-118.666-31.782-44.492-40.114-84.879-23.46-113.724 16.653-28.845 55.797-41.819 110.217-36.545 52.366 5.079 113.363 26.442 171.754 60.155 58.392 33.712 107.393 75.855 137.974 118.666 31.782 44.491 40.113 84.879 23.46 113.724-14.222 24.634-44.853 37.695-87.387 37.696zm-268.927-316.411c-36.741 0-62.69 10.451-74.101 30.215-13.54 23.452-5.487 58.08 22.675 97.504 29.363 41.105 76.691 81.731 133.268 114.396s115.424 53.339 165.702 58.216c48.219 4.673 82.239-5.662 95.779-29.115 13.54-23.452 5.487-58.08-22.675-97.504-29.363-41.105-76.692-81.731-133.269-114.396s-115.423-53.339-165.703-58.216c-7.584-.736-14.819-1.1-21.676-1.1z" fill="#f2671f"/><path d="m125.25 421.696c-42.539.001-73.163-13.061-87.386-37.696-16.654-28.845-8.322-69.232 23.46-113.724 30.582-42.811 79.581-84.954 137.973-118.666l3.75 6.495-3.75-6.495c58.392-33.713 119.389-55.076 171.755-60.155 54.42-5.277 93.564 7.701 110.217 36.545 16.653 28.845 8.322 69.232-23.46 113.724-30.581 42.811-79.582 84.954-137.974 118.666-58.392 33.713-119.389 55.076-171.754 60.155-7.942.77-15.562 1.151-22.831 1.151zm81.547-257.095c-56.576 32.664-103.905 73.29-133.268 114.396-28.162 39.423-36.215 74.051-22.675 97.503s47.555 33.791 95.778 29.115c50.279-4.877 109.126-25.552 165.703-58.216s103.905-73.29 133.269-114.396c28.162-39.424 36.215-74.052 22.675-97.504-13.541-23.452-47.56-33.789-95.779-29.115-50.279 4.878-109.127 25.553-165.703 58.217z" fill="#fb7722"/></g><g><g><path d="m393.341 344.268h-267.55c-4.193 0-7.593-3.399-7.593-7.593v-141.976c0-4.193 3.399-7.593 7.593-7.593h267.55c4.193 0 7.593 3.399 7.593 7.593v141.977c0 4.193-3.399 7.592-7.593 7.592z" fill="#5169cd"/><path d="m400.934 194.695v141.982c0 4.191-3.402 7.593-7.593 7.593h-25.12c4.191 0 7.593-3.402 7.593-7.593v-141.982c0-4.191-3.402-7.593-7.593-7.593h25.12c4.191 0 7.593 3.402 7.593 7.593z" fill="#3351c5"/></g><g><g><g><path d="m259.564 314.492h-108.65c-4.193 0-7.593-3.399-7.593-7.593v-131.576c0-4.193 3.399-7.593 7.593-7.593h78.278c16.774 0 30.372 13.598 30.372 30.372z" fill="#f2eff2"/><path d="m259.566 198.103v116.392h-23.933v-116.392c0-16.773-13.599-30.372-30.372-30.372h23.933c16.773 0 30.372 13.599 30.372 30.372z" fill="#e1dde1"/><path d="m143.321 306.9v-15.186c0-4.193 3.399-7.593 7.593-7.593h78.278c16.774 0 30.372 13.598 30.372 30.372h-108.65c-4.193-.001-7.593-3.4-7.593-7.593z" fill="#cbc5cb"/><path d="m259.566 314.494h-23.12c0-16.773-13.591-30.372-30.372-30.372h23.12c16.773.001 30.372 13.6 30.372 30.372z" fill="#b5adb6"/></g><g><path d="m259.568 314.492h108.65c4.193 0 7.593-3.399 7.593-7.593v-131.576c0-4.193-3.399-7.593-7.593-7.593h-78.278c-16.774 0-30.372 13.598-30.372 30.372z" fill="#f2eff2"/><path d="m375.808 175.324v131.578c0 4.191-3.394 7.593-7.593 7.593h-23.477c4.191 0 7.593-3.402 7.593-7.593v-131.578c0-4.191-3.402-7.593-7.593-7.593h23.477c4.199 0 7.593 3.402 7.593 7.593z" fill="#e1dde1"/><path d="m375.811 306.9v-15.186c0-4.193-3.399-7.593-7.593-7.593h-78.278c-16.774 0-30.372 13.598-30.372 30.372h108.65c4.193-.001 7.593-3.4 7.593-7.593z" fill="#cbc5cb"/><path d="m375.808 291.716v15.186c0 4.191-3.394 7.593-7.593 7.593h-23.477c4.191 0 7.593-3.402 7.593-7.593v-15.186c0-4.199-3.402-7.593-7.593-7.593h23.477c4.199 0 7.593 3.394 7.593 7.593z" fill="#b5adb6"/></g></g><g fill="#cbc5cb"><g><path d="m221.566 204.107h-47.566c-4.142 0-7.5-3.357-7.5-7.5s3.358-7.5 7.5-7.5h47.566c4.142 0 7.5 3.357 7.5 7.5s-3.358 7.5-7.5 7.5z"/><path d="m221.566 230.422h-47.566c-4.142 0-7.5-3.357-7.5-7.5s3.358-7.5 7.5-7.5h47.566c4.142 0 7.5 3.357 7.5 7.5s-3.358 7.5-7.5 7.5z"/><path d="m221.566 256.736h-47.566c-4.142 0-7.5-3.357-7.5-7.5s3.358-7.5 7.5-7.5h47.566c4.142 0 7.5 3.357 7.5 7.5s-3.358 7.5-7.5 7.5z"/></g><g><path d="m345.132 204.107h-47.565c-4.143 0-7.5-3.357-7.5-7.5s3.357-7.5 7.5-7.5h47.565c4.143 0 7.5 3.357 7.5 7.5s-3.357 7.5-7.5 7.5z"/><path d="m345.132 230.422h-47.565c-4.143 0-7.5-3.357-7.5-7.5s3.357-7.5 7.5-7.5h47.565c4.143 0 7.5 3.357 7.5 7.5s-3.357 7.5-7.5 7.5z"/><path d="m345.132 256.736h-47.565c-4.143 0-7.5-3.357-7.5-7.5s3.357-7.5 7.5-7.5h47.565c4.143 0 7.5 3.357 7.5 7.5s-3.357 7.5-7.5 7.5z"/></g></g></g></g><g><circle cx="457.457" cy="113.184" fill="#fddd45" r="27.039"/><path d="m484.492 113.183c0 14.93-12.1 27.04-27.04 27.04-4.55 0-8.82-1.12-12.58-3.11 11.96-1.63 21.17-11.89 21.17-24.29 0-12.02-8.66-22.03-20.08-24.11 3.48-1.65 7.38-2.57 11.49-2.57 14.94 0 27.04 12.11 27.04 27.04z" fill="#f8c52d"/></g><g><circle cx="170.742" cy="409.848" fill="#fddd45" r="27.039"/><path d="m197.778 409.847c0 14.93-12.1 27.04-27.04 27.04-4.55 0-8.82-1.12-12.58-3.11 11.96-1.63 21.17-11.89 21.17-24.29 0-12.02-8.66-22.03-20.08-24.11 3.48-1.65 7.38-2.57 11.49-2.57 14.94 0 27.04 12.11 27.04 27.04z" fill="#f8c52d"/></g></g><g><circle cx="49.387" cy="207.39" fill="#fddd45" r="27.039"/><path d="m76.423 207.39c0 14.93-12.1 27.04-27.04 27.04-4.55 0-8.82-1.12-12.58-3.11 11.96-1.63 21.17-11.89 21.17-24.29 0-12.02-8.66-22.03-20.08-24.11 3.48-1.65 7.38-2.57 11.49-2.57 14.94 0 27.04 12.11 27.04 27.04z" fill="#f8c52d"/></g></g></svg>