<svg viewBox="0 0 512 512" xmlns="http://www.w3.org/2000/svg" xmlns:xlink="http://www.w3.org/1999/xlink"><linearGradient id="linear-gradient" gradientUnits="userSpaceOnUse" x2="512" y1="256" y2="256"><stop offset="0" stop-color="#6b7f7f"/><stop offset=".6" stop-color="#80999b"/><stop offset="1" stop-color="#a2b9ba"/></linearGradient><g id="multimedia"><path d="m167.88 76.2-34.88-34.47c32.8-4.32 85.44-8.19 123-7.8 46.25-.48 115.55 5.52 142.23 10.85 48.35 9.4 92.7 52.16 103.18 99.49v.25c7 33.83 10.48 68.8 10.54 106.9s-3.51 73.17-10.54 107v.24a117.56 117.56 0 0 1 -13.66 34l-173.59-171.72c11.08-7 24.4-10.21 37.68-10.26 18.36.08 36.83 6.15 49.27 20 23.71 26.54 47.55 56.26 68.93 85.18a517.07 517.07 0 0 0 3.96-64.44c-.06-35.38-3.23-67.81-9.71-99-7.22-32.32-40.09-63.84-73.33-70.28h-.11c-21.64-4.33-89.18-10.63-134.62-10.13h-.42c-26.31-.36-60.01 1.63-87.93 4.19zm338.47 388.38a19 19 0 1 1 -26.74 27l-46.61-46.13a121.89 121.89 0 0 1 -34.72 12.68c-25.7 5.12-90.75 10.87-136.85 10.87q-2.76 0-5.43 0c-46.26.5-115.56-5.52-142.24-10.85-48.35-9.43-92.69-52.15-103.17-99.51l-.06-.25c-7.02-33.83-10.46-68.8-10.53-106.9s3.51-73.2 10.54-107l.05-.24c6-27.17 23.14-52.75 45.79-71.42l-25.7-25.41a19 19 0 1 1 26.73-27zm-243.16-187.11-78.26-77.47a44.35 44.35 0 1 1 -57.5-56.89l-43.79-43.29c-17.64 13.58-31.52 32.89-35.91 52.55-6.47 31.19-9.65 63.63-9.73 99.12s3.23 67.81 9.71 99.05a72.92 72.92 0 0 0 3.41 10.9c17-23.53 36.6-48.22 56.06-70 9.14-10.15 22.7-14.61 36.17-14.67s27 4.52 36.18 14.67c13 14.52 26 30.34 38.28 46.24 13.95-19.68 29.33-40.17 45.38-60.21z" fill="url(#linear-gradient)"/></g></svg>